PathFileType	4	(X/Y/Z)	walk-thru1-3-TP.trc
DataRate	CameraRate	NumFrames	NumMarkers	Units	OrigDataRate	OrigDataStartFrame	OrigNumFrames
120.00	120.00	       4	60	mm	120.00	374	       597
Frame#	Time	Top.Head			Front.Head			Rear.Head			Jaw			C7			R.Clavicle			L.Clavicle			R.Shoulder			L.Shoulder			R.Scapula			L.Scapula			R.Scap.Inf			R.Biceps.Lateral			R.Elbow			R.Elbow.Medial			R.Forearm			R.Ulna			R.Radius			R.Wrist			R.Thumb.M1			R.Thumb.M2			R.Thumb.M3			R.Finger3.M1			R.Finger3.M2			R.Finger3.M3			L.Biceps.Lateral			L.Elbow			L.Elbow.Medial			L.Forearm			L.Ulna			L.Radius			L.Wrist			L.Thumb.M1			L.Thumb.M2			L.Thumb.M3			L.Finger3.M1			L.Finger3.M2			L.Finger3.M3			V.Sacral			R.ASIS			L.ASIS			R.Thigh			R.Thigh.Front			R.Knee			R.Knee.Medial			R.Shank			R.Ankle			R.Ankle.Medial			R.Heel			R.Toe			R.MedFoot			L.Thigh			L.Knee			L.Knee.Medial			L.Shank			L.Ankle			L.Ankle.Medial			L.Heel			L.Toe			L.MedFoot			V_mid_ASIS			V_R_Knee_JC			V_L_Knee_JC			V_R_Elbow_JC			V_L_Elbow_JC			V_R_Ankle_JC			V_L_Ankle_JC			V_R_Wrist_JC			V_L_Wrist_JC			V_R_ScaTrpz_1stMC_JC			V_R_1stMC_1stPP_JC			V_R_1stPP_1stDP_JC			V_R_LunCap_3rdMC_JC			V_R_3rdMC_3rdPP_JC			V_R_3rdPP_3rdMP_JC			V_R_3rdMP_3rdDP_JC			V_L_ScaTrpz_1stMC_JC			V_L_1stMC_1stPP_JC			V_L_1stPP_1stDP_JC			V_L_LunCap_3rdMC_JC			V_L_3rdMC_3rdPP_JC			V_L_3rdPP_3rdMP_JC			V_L_3rdMP_3rdPP_JC			V_ROOT_JC			V_R_Hip_JC			V_L_Hip_JC			V_R_GlenHum_JC			V_L_GlenHum_JC			V_ForeHead_Ctr			V_Vertex			V_Sagit_Lambdoid_Suture			V_R_FrontoTemp			V_L_FrontoTemporal			V_R_ParietalOccip			V_L_ParietalOcciptal			V_R_Temporal			V_L_Temporal			V_mid_FrontRearHead			V_mid_RLGlenHumCtrs			V_C7_vert			V_C1_vert			V_Mid_Hip			
		X1	Y1	Z1	X2	Y2	Z2	X3	Y3	Z3	X4	Y4	Z4	X5	Y5	Z5	X6	Y6	Z6	X7	Y7	Z7	X8	Y8	Z8	X9	Y9	Z9	X10	Y10	Z10	X11	Y11	Z11	X12	Y12	Z12	X13	Y13	Z13	X14	Y14	Z14	X15	Y15	Z15	X16	Y16	Z16	X17	Y17	Z17	X18	Y18	Z18	X19	Y19	Z19	X20	Y20	Z20	X21	Y21	Z21	X22	Y22	Z22	X23	Y23	Z23	X24	Y24	Z24	X25	Y25	Z25	X26	Y26	Z26	X27	Y27	Z27	X28	Y28	Z28	X29	Y29	Z29	X30	Y30	Z30	X31	Y31	Z31	X32	Y32	Z32	X33	Y33	Z33	X34	Y34	Z34	X35	Y35	Z35	X36	Y36	Z36	X37	Y37	Z37	X38	Y38	Z38	X39	Y39	Z39	X40	Y40	Z40	X41	Y41	Z41	X42	Y42	Z42	X43	Y43	Z43	X44	Y44	Z44	X45	Y45	Z45	X46	Y46	Z46	X47	Y47	Z47	X48	Y48	Z48	X49	Y49	Z49	X50	Y50	Z50	X51	Y51	Z51	X52	Y52	Z52	X53	Y53	Z53	X54	Y54	Z54	X55	Y55	Z55	X56	Y56	Z56	X57	Y57	Z57	X58	Y58	Z58	X59	Y59	Z59	X60	Y60	Z60	

374	3.108	-99.93415	-17.93104	1777.43286	-203.73804	-1.11265	1658.65198	29.23379	-27.73381	1701.32922	-117.89542	-7.50275	1482.34094	119.07274	-16.52932	1575.49915	15.77095	105.98217	1498.41956	10.20073	-137.51688	1487.23303	66.71469	212.08784	1487.63879	55.84879	-243.00009	1485.52588	180.34750	84.24697	1484.05786	184.87904	-109.31093	1478.17041	209.18173	88.94758	1393.84253	103.18372	245.47369	1348.90723	166.23380	274.75809	1166.42883	165.68614	178.01820	1157.41174	71.10863	275.75607	1101.83569	129.80576	274.82886	964.93164	13.11291	270.36356	938.46680	15.52020	314.02811	906.14880	-8.83520	264.33917	898.92297	-20.04039	232.42213	857.31079	-27.88870	227.18648	806.04297	-7.55449	316.91623	823.43854	19.48801	259.26111	772.71173	44.06915	214.11287	808.52991	113.51209	-272.25665	1340.24072	177.42445	-286.74725	1172.66431	192.45978	-192.76344	1148.43494	98.25842	-286.12744	1088.21643	163.61571	-313.54376	986.97821	70.62625	-292.75177	925.74927	92.84760	-335.37323	894.14807	49.73936	-292.52231	868.86627	35.94078	-266.83069	822.78223	30.58688	-270.48575	772.78418	73.16090	-347.76236	794.29401	76.77016	-315.99249	735.23157	86.31988	-257.36121	736.34229	231.53795	-6.67925	1121.41174	31.96446	175.13576	1060.42542	44.44621	-175.38449	1067.51929	9.73036	164.61789	686.84381	-73.93616	70.88190	598.50812	-37.59677	133.71114	534.66821	-18.70555	25.04806	530.71246	-49.67255	94.08212	316.21225	38.16938	133.54417	86.72634	23.68884	29.94581	105.98394	101.29904	88.36481	50.12295	-132.78989	95.91224	41.72635	-70.59707	57.99286	79.52751	72.68858	-184.53462	675.76801	77.23351	-176.53304	522.94305	76.81837	-64.08044	500.79535	170.86282	-132.06117	330.45767	384.13876	-131.45010	172.22562	318.84204	-45.46509	171.21187	425.86267	-55.15619	166.22723	259.52850	-118.83640	42.31035	275.98648	-86.83035	108.88121																																																																																																																															
375	3.117	-105.84225	-15.35635	1778.27905	-208.64468	-0.15282	1659.02954	23.98998	-23.71992	1701.18726	-122.90810	-6.25996	1482.84204	114.40514	-14.78098	1577.29663	10.61090	107.23906	1498.50415	5.17852	-136.87465	1488.26477	59.18595	213.29211	1488.60059	53.77177	-241.94691	1486.16162	174.67883	87.62744	1484.75281	180.20886	-107.26292	1478.52637	203.33307	92.40571	1394.59082	96.65480	246.49084	1348.53772	159.96381	276.17899	1166.49072	158.08806	180.26787	1158.46521	65.91118	274.48175	1101.56921	122.74802	275.97101	965.45972	6.03736	270.17276	939.15747	8.28701	314.34204	907.11737	-14.74936	263.17401	898.82666	-29.25841	236.19638	857.05157	-35.93879	231.01425	805.31372	-15.14400	321.49301	825.83533	10.06439	265.14136	771.66217	35.54233	217.92348	807.11499	109.29385	-270.96762	1341.78845	173.75955	-284.97562	1174.37866	190.00966	-191.37000	1150.12805	95.27237	-283.88687	1089.55957	161.10141	-311.44089	988.16400	68.37109	-290.50711	926.34668	90.18626	-333.51193	895.12939	47.54707	-290.48837	869.64124	33.31037	-266.03040	823.49902	28.39803	-268.42773	773.59576	71.95701	-345.18524	794.64532	75.02652	-314.32709	736.14508	85.33485	-254.98923	736.95221	226.45409	-6.21933	1122.06470	28.93178	174.80267	1061.36743	40.12270	-174.20578	1068.59045	6.89370	165.84172	686.80652	-75.91854	71.58028	598.40405	-39.84040	134.63197	534.57239	-20.81785	24.99613	530.70776	-51.33361	93.15568	315.81793	38.57217	134.55292	86.78791	23.76456	30.10890	105.97929	101.29904	88.36481	50.12295	-132.87679	95.86278	41.53413	-70.42692	58.03861	79.60165	62.24664	-184.70694	677.19189	65.09188	-176.45549	523.54071	62.23133	-66.02162	501.23856	161.34248	-133.06976	332.26410	377.06802	-133.03024	177.70947	311.05298	-46.35538	175.45732	418.38327	-57.20621	174.00388	257.06540	-118.39375	42.94712	271.33871	-86.83676	110.26327																																																																																																																															
376	3.125	-111.30353	-14.88901	1778.75171	-213.99213	1.61918	1659.67542	18.43949	-24.06806	1702.10120	-127.84654	-6.62521	1483.53650	109.09297	-14.25011	1577.64612	4.56545	108.17524	1498.71936	0.71309	-136.60306	1488.85974	54.01389	214.17601	1488.26855	49.12827	-239.51443	1488.43494	169.09082	88.61864	1486.38977	174.86749	-105.87089	1479.56531	197.26314	94.05323	1395.91138	90.06363	247.74205	1349.21167	152.12105	278.73645	1165.01990	153.95093	181.73933	1158.75598	58.58603	275.63007	1101.50977	115.82982	277.60376	965.68481	-0.42409	269.09662	939.20459	0.69590	314.86060	908.31085	-21.85554	264.98849	897.99628	-37.58648	237.87280	855.35822	-43.42416	235.67244	802.41370	-25.08510	324.53677	827.61548	2.64747	272.03403	771.09985	32.52529	224.13658	800.71198	106.15559	-268.86398	1342.86035	172.36609	-283.74777	1175.38708	185.23238	-188.01553	1151.28027	92.05124	-282.60919	1090.26538	158.28712	-309.65784	989.40973	65.66184	-288.80554	927.77332	88.28677	-331.20663	896.38153	45.20504	-289.00845	870.16785	31.50063	-263.51553	823.72711	27.01345	-265.75287	773.80530	70.06593	-343.11938	795.75275	73.78236	-311.57605	736.61652	83.00679	-252.78392	738.04865	221.03876	-4.55868	1122.70435	21.51079	176.81352	1060.96448	36.41501	-173.06911	1068.79077	2.94998	166.05244	686.65558	-77.69937	72.39632	597.46045	-40.94514	135.26575	534.56543	-21.24285	24.89862	530.46509	-52.12537	94.52467	316.10593	37.94806	133.57549	86.72478	23.74755	30.65581	106.36471	101.34167	88.37644	50.04031	-133.09550	95.92273	41.56915	-70.57558	57.91509	79.52241	51.87007	-185.02022	677.78052	53.55194	-178.05884	524.43152	48.63927	-66.66727	501.00262	150.51068	-133.50121	333.99472	368.75528	-134.74680	182.88698	304.75348	-48.44260	179.46898	411.38907	-60.29312	181.01578	255.84706	-118.54973	43.55648	265.52469	-86.73132	112.35629																																																																																																																															
377	3.133	-116.78040	-13.73058	1778.87708	-219.13367	1.84326	1660.39441	13.71457	-21.48648	1703.13147	-132.45387	-5.16655	1484.01746	103.97607	-12.60605	1578.55408	-0.79688	109.47315	1499.56763	-4.81827	-135.37068	1489.96411	48.46548	215.38304	1489.33984	44.80727	-239.29321	1488.59094	163.93105	90.51497	1487.22375	170.34935	-103.59226	1481.08765	191.53535	96.43466	1397.23413	82.87142	248.70395	1348.71350	145.55379	279.78882	1165.59253	146.62096	182.78038	1158.11841	51.47955	275.51157	1101.87073	107.76492	278.14365	965.22919	-7.71179	268.37338	938.98334	-6.87081	313.95959	910.10742	-27.80019	263.96732	896.48291	-42.03646	238.90221	852.34308	-50.19421	239.94940	800.56439	-32.98990	327.60205	829.57233	-5.17792	279.51718	770.37567	24.49318	231.20813	798.50427	102.93836	-267.53552	1343.90674	169.85014	-280.63461	1176.77161	180.79965	-187.68416	1152.12903	88.57502	-280.56165	1090.66589	155.94717	-307.02759	989.88824	64.09027	-287.34961	928.53827	85.85115	-329.51825	897.29413	43.54031	-286.31406	870.90472	29.11919	-261.54398	824.55493	25.19711	-264.32928	774.33252	67.68700	-341.29535	796.62671	72.59534	-310.00024	737.78436	82.65261	-252.92256	739.95551	216.07076	-3.64375	1124.12073	19.29464	177.80956	1061.96936	31.23878	-171.62518	1068.33130	0.33056	166.76193	686.89105	-80.04788	72.36559	597.14136	-43.16465	135.80199	533.98022	-23.71978	26.44794	530.98383	-51.69763	93.96848	314.84125	37.46954	133.76320	86.50802	23.54445	30.42751	106.10622	101.34167	88.37644	50.04031	-133.01619	95.92004	41.63211	-70.74276	57.76336	79.42341	42.60666	-184.90501	678.86011	41.70171	-176.41615	525.70593	37.49329	-68.16264	502.33875	140.58203	-134.19321	335.99115	360.44278	-135.98291	187.94324	297.89127	-49.38574	184.25093	404.28534	-62.25541	188.21971	251.52129	-119.01133	46.18388	259.75711	-87.83248	115.67403																																																																																																																															
